<svg xmlns="http://www.w3.org/2000/svg" viewBox="0 0 1050 620" font-family="'Segoe UI', Arial, sans-serif">
  <defs>
    <linearGradient id="bg3" x1="0%" y1="0%" x2="100%" y2="100%">
      <stop offset="0%" style="stop-color:#0f172a"/><stop offset="100%" style="stop-color:#1e293b"/>
    </linearGradient>
    <filter id="s3"><feDropShadow dx="0" dy="2" stdDeviation="4" flood-color="#000" flood-opacity="0.35"/></filter>
    <marker id="m1" viewBox="0 0 10 7" refX="10" refY="3.5" markerWidth="8" markerHeight="6" orient="auto-start-auto">
      <polygon points="0 0, 10 3.5, 0 7" fill="#60a5fa"/>
    </marker>
    <marker id="m2" viewBox="0 0 10 7" refX="10" refY="3.5" markerWidth="8" markerHeight="6" orient="auto-start-auto">
      <polygon points="0 0, 10 3.5, 0 7" fill="#fbbf24"/>
    </marker>
    <marker id="m3" viewBox="0 0 10 7" refX="10" refY="3.5" markerWidth="8" markerHeight="6" orient="auto-start-auto">
      <polygon points="0 0, 10 3.5, 0 7" fill="#f87171"/>
    </marker>
    <marker id="m4" viewBox="0 0 10 7" refX="10" refY="3.5" markerWidth="8" markerHeight="6" orient="auto-start-auto">
      <polygon points="0 0, 10 3.5, 0 7" fill="#34d399"/>
    </marker>
    <marker id="m5" viewBox="0 0 10 7" refX="10" refY="3.5" markerWidth="8" markerHeight="6" orient="auto-start-auto">
      <polygon points="0 0, 10 3.5, 0 7" fill="#c084fc"/>
    </marker>
    <marker id="m6" viewBox="0 0 10 7" refX="10" refY="3.5" markerWidth="8" markerHeight="6" orient="auto-start-auto">
      <polygon points="0 0, 10 3.5, 0 7" fill="#22d3ee"/>
    </marker>
  </defs>

  <rect width="1050" height="620" rx="16" fill="url(#bg3)"/>

  <!-- Title -->
  <text x="525" y="40" text-anchor="middle" fill="#f8fafc" font-size="22" font-weight="700">📊 Monitoring &amp; Observability Architecture</text>
  <line x1="320" y1="52" x2="730" y2="52" stroke="#3b82f6" stroke-width="2" opacity="0.4"/>

  <!-- ===== Application Layer ===== -->
  <rect x="30" y="70" width="480" height="220" rx="14" fill="none" stroke="#6366f1" stroke-width="1" stroke-dasharray="8,4" opacity="0.5"/>
  <text x="50" y="92" fill="#a5b4fc" font-size="13" font-weight="700">APPLICATION LAYER</text>

  <!-- API Server -->
  <g filter="s3">
    <rect x="50" y="106" width="200" height="70" rx="10" fill="#312e81" stroke="#818cf8" stroke-width="1.5"/>
    <text x="150" y="132" text-anchor="middle" fill="#e0e7ff" font-size="12" font-weight="600">coupon-api (8080)</text>
    <text x="150" y="150" text-anchor="middle" fill="#a5b4fc" font-size="9">/actuator/prometheus</text>
    <text x="150" y="164" text-anchor="middle" fill="#a5b4fc" font-size="9">/health/liveness · /readiness</text>
  </g>

  <!-- Worker Server -->
  <g filter="s3">
    <rect x="270" y="106" width="220" height="70" rx="10" fill="#7c2d12" stroke="#fb923c" stroke-width="1.5"/>
    <text x="380" y="132" text-anchor="middle" fill="#fed7aa" font-size="12" font-weight="600">coupon-worker (8081)</text>
    <text x="380" y="150" text-anchor="middle" fill="#fdba74" font-size="9">/actuator/prometheus</text>
    <text x="380" y="164" text-anchor="middle" fill="#fdba74" font-size="9">OutboxWorkerMetrics (Custom)</text>
  </g>

  <!-- Instrumentation -->
  <g filter="s3">
    <rect x="50" y="192" width="130" height="52" rx="10" fill="#064e3b" stroke="#34d399" stroke-width="1.5"/>
    <text x="115" y="215" text-anchor="middle" fill="#d1fae5" font-size="11" font-weight="600">Micrometer</text>
    <text x="115" y="233" text-anchor="middle" fill="#6ee7b7" font-size="9">Metrics Facade</text>
  </g>

  <g filter="s3">
    <rect x="195" y="192" width="140" height="52" rx="10" fill="#0c4a6e" stroke="#06b6d4" stroke-width="1.5"/>
    <text x="265" y="215" text-anchor="middle" fill="#67e8f9" font-size="11" font-weight="600">OpenTelemetry</text>
    <text x="265" y="233" text-anchor="middle" fill="#22d3ee" font-size="9">Distributed Tracing</text>
  </g>

  <g filter="s3">
    <rect x="350" y="192" width="140" height="52" rx="10" fill="#3b1111" stroke="#ef4444" stroke-width="1.5"/>
    <text x="420" y="215" text-anchor="middle" fill="#fecaca" font-size="11" font-weight="600">Sentry SDK</text>
    <text x="420" y="233" text-anchor="middle" fill="#f87171" font-size="9">Error Capture</text>
  </g>

  <line x1="150" y1="176" x2="115" y2="187" stroke="#34d399" stroke-width="1.2" marker-end="url(#m4)"/>
  <line x1="200" y1="176" x2="245" y2="187" stroke="#22d3ee" stroke-width="1.2" marker-end="url(#m6)"/>
  <line x1="380" y1="176" x2="420" y2="187" stroke="#f87171" stroke-width="1.2" marker-end="url(#m3)"/>

  <!-- ===== Metrics Pipeline ===== -->
  <rect x="540" y="70" width="480" height="220" rx="14" fill="none" stroke="#f59e0b" stroke-width="1" stroke-dasharray="8,4" opacity="0.5"/>
  <text x="560" y="92" fill="#fbbf24" font-size="13" font-weight="700">METRICS &amp; ALERTING PIPELINE</text>

  <!-- Prometheus -->
  <g filter="s3">
    <rect x="560" y="106" width="200" height="70" rx="10" fill="#451a03" stroke="#f59e0b" stroke-width="1.5"/>
    <text x="660" y="132" text-anchor="middle" fill="#fde68a" font-size="12" font-weight="600">📈 Prometheus</text>
    <text x="660" y="150" text-anchor="middle" fill="#fbbf24" font-size="9">Metrics Scraping</text>
    <text x="660" y="164" text-anchor="middle" fill="#fbbf24" font-size="9">Time Series Storage</text>
  </g>

  <!-- Grafana -->
  <g filter="s3">
    <rect x="790" y="106" width="200" height="70" rx="10" fill="#064e3b" stroke="#34d399" stroke-width="1.5"/>
    <text x="890" y="132" text-anchor="middle" fill="#d1fae5" font-size="12" font-weight="600">📊 Grafana</text>
    <text x="890" y="150" text-anchor="middle" fill="#6ee7b7" font-size="9">Dashboard</text>
    <text x="890" y="164" text-anchor="middle" fill="#6ee7b7" font-size="9">Visualization</text>
  </g>

  <line x1="490" y1="222" x2="555" y2="141" stroke="#fbbf24" stroke-width="1.5" marker-end="url(#m2)"/>
  <text x="535" y="165" fill="#fbbf24" font-size="8">scrape</text>
  <line x1="760" y1="141" x2="785" y2="141" stroke="#34d399" stroke-width="1.5" marker-end="url(#m4)"/>

  <!-- Sentry Cloud -->
  <g filter="s3">
    <rect x="560" y="195" width="200" height="52" rx="10" fill="#3b1111" stroke="#ef4444" stroke-width="1.5"/>
    <text x="660" y="218" text-anchor="middle" fill="#fecaca" font-size="12" font-weight="600">🔴 Sentry Cloud</text>
    <text x="660" y="236" text-anchor="middle" fill="#f87171" font-size="9">Error Dashboard &amp; Issue Tracking</text>
  </g>
  <line x1="490" y1="222" x2="555" y2="222" stroke="#f87171" stroke-width="1.5" marker-end="url(#m3)"/>

  <!-- Alert Channels -->
  <g filter="s3">
    <rect x="790" y="195" width="200" height="52" rx="10" fill="#312e81" stroke="#818cf8" stroke-width="1.5"/>
    <text x="890" y="218" text-anchor="middle" fill="#e0e7ff" font-size="12" font-weight="600">🔔 Slack Webhook</text>
    <text x="890" y="236" text-anchor="middle" fill="#a5b4fc" font-size="9">Dead Event / Alert Notification</text>
  </g>
  <line x1="760" y1="222" x2="785" y2="222" stroke="#c084fc" stroke-width="1.5" marker-end="url(#m5)"/>
  <line x1="890" y1="176" x2="890" y2="190" stroke="#c084fc" stroke-width="1.5" marker-end="url(#m5)"/>

  <!-- ===== Logging Layer ===== -->
  <rect x="30" y="315" width="990" height="100" rx="14" fill="none" stroke="#94a3b8" stroke-width="1" stroke-dasharray="8,4" opacity="0.4"/>
  <text x="50" y="337" fill="#cbd5e1" font-size="13" font-weight="700">LOGGING &amp; TRACING LAYER (support modules)</text>

  <g filter="s3">
    <rect x="50" y="350" width="170" height="48" rx="10" fill="#1e293b" stroke="#94a3b8" stroke-width="1.5"/>
    <text x="135" y="371" text-anchor="middle" fill="#e2e8f0" font-size="11" font-weight="600">📝 Logback</text>
    <text x="135" y="389" text-anchor="middle" fill="#94a3b8" font-size="9">Structured JSON Logging</text>
  </g>

  <g filter="s3">
    <rect x="240" y="350" width="170" height="48" rx="10" fill="#0c4a6e" stroke="#06b6d4" stroke-width="1.5"/>
    <text x="325" y="371" text-anchor="middle" fill="#67e8f9" font-size="11" font-weight="600">🔗 OTel Tracing</text>
    <text x="325" y="389" text-anchor="middle" fill="#22d3ee" font-size="9">Trace ID / Span Context</text>
  </g>

  <g filter="s3">
    <rect x="430" y="350" width="170" height="48" rx="10" fill="#1e293b" stroke="#94a3b8" stroke-width="1.5"/>
    <text x="515" y="371" text-anchor="middle" fill="#e2e8f0" font-size="11" font-weight="600">📦 support:logging</text>
    <text x="515" y="389" text-anchor="middle" fill="#94a3b8" font-size="9">Logback + Sentry + OTel Bridge</text>
  </g>

  <g filter="s3">
    <rect x="620" y="350" width="190" height="48" rx="10" fill="#1e293b" stroke="#94a3b8" stroke-width="1.5"/>
    <text x="715" y="371" text-anchor="middle" fill="#e2e8f0" font-size="11" font-weight="600">📦 support:monitoring</text>
    <text x="715" y="389" text-anchor="middle" fill="#94a3b8" font-size="9">Actuator + Prometheus + Health</text>
  </g>

  <g filter="s3">
    <rect x="830" y="350" width="170" height="48" rx="10" fill="#1e293b" stroke="#94a3b8" stroke-width="1.5"/>
    <text x="915" y="371" text-anchor="middle" fill="#e2e8f0" font-size="11" font-weight="600">📋 LoggingFilter</text>
    <text x="915" y="389" text-anchor="middle" fill="#94a3b8" font-size="9">Request/Response Logging</text>
  </g>

  <line x1="220" y1="374" x2="235" y2="374" stroke="#64748b" stroke-width="1.5" marker-end="url(#m1)"/>
  <line x1="410" y1="374" x2="425" y2="374" stroke="#64748b" stroke-width="1.5" marker-end="url(#m1)"/>
  <line x1="600" y1="374" x2="615" y2="374" stroke="#64748b" stroke-width="1.5" marker-end="url(#m1)"/>
  <line x1="810" y1="374" x2="825" y2="374" stroke="#64748b" stroke-width="1.5" marker-end="url(#m1)"/>

  <!-- ===== Key Metrics ===== -->
  <rect x="30" y="440" width="990" height="160" rx="14" fill="none" stroke="#3b82f6" stroke-width="1" stroke-dasharray="8,4" opacity="0.4"/>
  <text x="50" y="462" fill="#93c5fd" font-size="13" font-weight="700">KEY METRICS TRACKED</text>

  <!-- Row 1 -->
  <g filter="s3">
    <rect x="50" y="476" width="180" height="48" rx="8" fill="#1e3a5f" stroke="#3b82f6" stroke-width="1"/>
    <text x="140" y="497" text-anchor="middle" fill="#bfdbfe" font-size="10" font-weight="600">HTTP Requests</text>
    <text x="140" y="513" text-anchor="middle" fill="#60a5fa" font-size="8">Rate / Latency / Status Code</text>
  </g>
  <g filter="s3">
    <rect x="250" y="476" width="180" height="48" rx="8" fill="#1e3a5f" stroke="#3b82f6" stroke-width="1"/>
    <text x="340" y="497" text-anchor="middle" fill="#bfdbfe" font-size="10" font-weight="600">JVM Metrics</text>
    <text x="340" y="513" text-anchor="middle" fill="#60a5fa" font-size="8">Memory / GC / Threads</text>
  </g>
  <g filter="s3">
    <rect x="450" y="476" width="180" height="48" rx="8" fill="#451a03" stroke="#f59e0b" stroke-width="1"/>
    <text x="540" y="497" text-anchor="middle" fill="#fde68a" font-size="10" font-weight="600">Kafka Consumer</text>
    <text x="540" y="513" text-anchor="middle" fill="#fbbf24" font-size="8">Lag / Throughput / DLQ Count</text>
  </g>
  <g filter="s3">
    <rect x="650" y="476" width="180" height="48" rx="8" fill="#3b1111" stroke="#ef4444" stroke-width="1"/>
    <text x="740" y="497" text-anchor="middle" fill="#fca5a5" font-size="10" font-weight="600">Redis Operations</text>
    <text x="740" y="513" text-anchor="middle" fill="#f87171" font-size="8">Latency / Hit Rate / Lock Wait</text>
  </g>
  <g filter="s3">
    <rect x="850" y="476" width="160" height="48" rx="8" fill="#064e3b" stroke="#34d399" stroke-width="1"/>
    <text x="930" y="497" text-anchor="middle" fill="#d1fae5" font-size="10" font-weight="600">Coupon Business</text>
    <text x="930" y="513" text-anchor="middle" fill="#6ee7b7" font-size="8">Issue Rate / Stock Level</text>
  </g>

  <!-- Row 2 -->
  <g filter="s3">
    <rect x="50" y="536" width="180" height="48" rx="8" fill="#312e81" stroke="#818cf8" stroke-width="1"/>
    <text x="140" y="557" text-anchor="middle" fill="#c7d2fe" font-size="10" font-weight="600">Outbox Worker</text>
    <text x="140" y="573" text-anchor="middle" fill="#818cf8" font-size="8">Poll / Claimed / Recovered / Dead</text>
  </g>
  <g filter="s3">
    <rect x="250" y="536" width="180" height="48" rx="8" fill="#312e81" stroke="#818cf8" stroke-width="1"/>
    <text x="340" y="557" text-anchor="middle" fill="#c7d2fe" font-size="10" font-weight="600">Rate Limiter</text>
    <text x="340" y="573" text-anchor="middle" fill="#818cf8" font-size="8">Permits / Throttled Count</text>
  </g>
  <g filter="s3">
    <rect x="450" y="536" width="180" height="48" rx="8" fill="#0c4a6e" stroke="#06b6d4" stroke-width="1"/>
    <text x="540" y="557" text-anchor="middle" fill="#67e8f9" font-size="10" font-weight="600">Distributed Traces</text>
    <text x="540" y="573" text-anchor="middle" fill="#22d3ee" font-size="8">Request → API → Kafka → Worker</text>
  </g>
  <g filter="s3">
    <rect x="650" y="536" width="180" height="48" rx="8" fill="#1e3a5f" stroke="#3b82f6" stroke-width="1"/>
    <text x="740" y="557" text-anchor="middle" fill="#bfdbfe" font-size="10" font-weight="600">HikariCP Pool</text>
    <text x="740" y="573" text-anchor="middle" fill="#60a5fa" font-size="8">Active / Idle / Wait Time</text>
  </g>
  <g filter="s3">
    <rect x="850" y="536" width="160" height="48" rx="8" fill="#3b1111" stroke="#ef4444" stroke-width="1"/>
    <text x="930" y="557" text-anchor="middle" fill="#fca5a5" font-size="10" font-weight="600">Error Tracking</text>
    <text x="930" y="573" text-anchor="middle" fill="#f87171" font-size="8">Sentry Issues / Error Rate</text>
  </g>
</svg>